<svg width="421" height="29" viewBox="0 0 421 29" fill="none" xmlns="http://www.w3.org/2000/svg">
<path d="M400.022 1.45346C394.787 1.59626 384.193 1.3333 376.656 1.11017C369.118 0.887033 362.649 0.771586 362.088 0.983057C361.158 1.29139 355.579 1.26559 332.405 0.807661C327.554 0.721073 318.907 0.788241 313.494 0.913124C289.857 1.48069 256.311 2.12234 252.186 1.97486C240.523 1.60423 219.01 2.51973 212.408 3.7309C210.941 3.98525 208.393 4.26455 206.955 4.25379C205.515 4.2428 201.021 4.19215 197.059 4.19521C193.099 4.1984 186.564 4.74624 182.537 5.41276C178.508 6.07904 174.178 6.17902 173.136 5.80598C171.929 5.28243 170.806 5.70535 170.726 6.5013C170.632 7.42998 169.345 7.70237 167.795 7.01015C166.245 6.31803 162.984 6.52558 160.546 7.48611C158.122 8.31415 155.039 8.53961 153.654 7.99815C152.104 7.30603 150.816 7.57829 150.722 8.50686C150.615 9.56817 148.793 9.78672 145.282 8.89714C142.486 8.07933 139.608 8.05758 138.814 8.78165C138.199 9.52377 136.02 9.7064 134.279 9.12897C132.359 8.53357 130.907 8.65535 130.84 9.31858C130.773 9.98191 129.293 10.3689 127.511 10.1895C125.73 10.01 123.346 10.44 122.005 11.243C120.663 12.046 119.759 12.0889 119.813 11.5583C119.88 10.895 117.688 11.2102 115.059 12.2856C112.443 13.2283 109.169 13.5685 107.784 13.0269C106.399 12.4854 105.303 12.643 105.235 13.3064C105.074 14.8983 98.673 14.1195 90.8292 11.5873C85.9474 10.0235 83.4393 9.90497 78.8101 11.1808C75.4819 12.0517 72.9335 12.3311 73.0006 11.6678C73.1349 10.3412 72.7785 10.3053 56.6307 8.0089C48.2962 6.76742 44.1003 5.54074 42.6443 3.91994C40.2401 0.99753 35.584 2.53875 33.1405 7.11704C31.843 9.26459 30.542 9.66957 28.1011 8.88771C26.373 8.17764 24.7425 8.28137 24.6753 8.9447C24.6081 9.60802 21.5959 10.9128 18.0627 12.031C14.5428 13.0166 11.5307 14.3214 11.477 14.852C11.4367 15.25 9.73899 16.017 7.73864 16.2176C5.73831 16.4181 4.00032 17.5833 3.89288 18.6445C3.78544 19.7058 2.9921 20.4299 2.27936 20.3582C0.49749 20.1787 0.272775 24.1764 1.9911 26.7617C3.86073 29.6302 8.2178 29.265 17.4324 25.3687C29.8373 20.1856 41.5064 16.9385 50.7551 16.2619C59.4827 15.3987 64.2132 16.6792 62.519 19.1888C61.877 20.1963 61.7964 20.9922 62.1529 21.0281C63.9347 21.2076 80.5794 18.5957 84.6473 17.5312C87.9621 16.7931 89.2094 16.9187 90.1577 18.2203C91.5599 20.3717 108.746 21.2986 112.539 19.4023C114.031 18.8826 116.21 18.7 117.76 19.3922C119.145 19.9337 120.953 19.8479 121.747 19.1237C122.362 18.3816 125.28 18.0054 127.953 18.2746C130.626 18.5438 133.722 18.1857 134.68 17.6121C135.83 16.9238 139.831 16.5228 143.778 16.6522C147.903 16.7998 153.725 16.18 157.053 15.3092C160.204 14.4204 163.656 14.098 164.507 14.5857C165.358 15.0735 168.071 14.9447 170.29 14.3641C172.7 13.6688 176.358 13.0991 178.51 13.1819C184.265 13.2255 207.093 11.7723 218.191 10.612C223.287 10.0531 229.084 9.69891 231.043 9.89623C233.004 10.0937 235.182 9.91108 235.961 9.31949C236.729 8.86077 238.016 8.58837 238.564 8.50949C239.276 8.58123 242.716 8.39171 246.142 8.33468C249.581 8.14502 255.35 8.05604 258.776 7.99901C262.189 8.07474 265.066 8.09659 265.08 7.96387C265.093 7.83124 268.698 7.79225 273.001 7.95762C277.304 8.12309 282.03 7.66094 283.359 6.99071C284.687 6.32034 286.865 6.13773 288.085 6.52866C289.293 7.05235 295.445 6.73392 301.981 6.18608C308.53 5.50552 314.477 5.43453 315.328 5.92229C316.013 6.25928 318.753 5.86526 321.369 4.92263C323.984 3.97987 327.424 3.79024 329.343 4.38555C331.085 4.96308 335.744 5.16436 339.553 4.87791C343.555 4.47688 350.241 4.21224 354.558 4.24499C359.053 4.29564 369.152 4.10678 377.101 3.83522C385.047 3.56352 399.3 3.25685 408.672 3.12877C419.484 3.01165 422.759 2.6714 417.77 2.16893C413.315 1.72017 405.421 1.46124 400.022 1.45346Z" fill="url(#paint0_linear_1_48)"/>
<defs>
<linearGradient id="paint0_linear_1_48" x1="213.566" y1="-18.3983" x2="206.787" y2="48.9056" gradientUnits="userSpaceOnUse">
<stop stop-color="#AB71F4"/>
<stop offset="1" stop-color="#34FEFE"/>
</linearGradient>
</defs>
</svg>
